<svg width="317" height="386" viewBox="0 0 317 386" fill="none" xmlns="http://www.w3.org/2000/svg">
<g clip-path="url(#clip0)">
<path d="M41.508 236.48C38.5223 234.803 36.2515 232.093 35.122 228.86C33.9925 225.627 34.0821 222.093 35.3739 218.922C36.6657 215.75 39.0709 213.159 42.1378 211.636C45.2046 210.112 48.7224 209.76 52.0301 210.647C55.338 211.533 58.2085 213.596 60.1027 216.449C61.9969 219.302 62.7845 222.749 62.3173 226.141C61.8503 229.534 60.1609 232.639 57.5662 234.874C54.9718 237.109 51.6505 238.32 48.2262 238.28L48.2261 238.28L44.7137 241.91C44.5685 242.06 44.3856 242.169 44.1842 242.224C43.9828 242.28 43.7701 242.281 43.5682 242.227C43.3663 242.173 43.1827 242.066 43.0361 241.917C42.8895 241.768 42.7855 241.582 42.7347 241.38L41.5081 236.48L41.508 236.48Z" stroke="#06CEFA" stroke-opacity="0.19" stroke-width="3" stroke-linecap="round" stroke-linejoin="round"/>
<path d="M54.7484 236.761C56.3283 238.115 58.1889 239.102 60.1961 239.65C62.2032 240.199 64.3068 240.295 66.3558 239.933C68.4046 239.57 70.3477 238.758 72.0449 237.554C73.742 236.35 75.1512 234.785 76.1705 232.971L76.1705 232.971L81.0706 231.745C81.2734 231.694 81.4587 231.59 81.6077 231.443C81.7568 231.297 81.8638 231.113 81.9179 230.911C81.9721 230.709 81.9712 230.497 81.9154 230.295C81.8597 230.094 81.7511 229.911 81.6008 229.766L77.9706 226.253L77.9708 226.253C77.9989 223.836 77.4034 221.452 76.242 219.332C75.0807 217.212 73.3924 215.427 71.3401 214.149C69.288 212.871 66.9412 212.144 64.526 212.037C62.1109 211.931 59.7091 212.448 57.5521 213.54" stroke="#06CEFA" stroke-opacity="0.19" stroke-width="3" stroke-linecap="round" stroke-linejoin="round"/>
</g>
<path d="M227.764 200.865L208.979 236.967L171.382 221.386" stroke="#2293FB" stroke-opacity="0.15" stroke-width="3" stroke-linecap="round" stroke-linejoin="round"/>
<path d="M171.382 221.386L227.764 200.865L242.3 240.802C242.526 241.425 242.496 242.112 242.216 242.713C241.936 243.314 241.429 243.779 240.805 244.006L189.122 262.817C188.499 263.044 187.812 263.014 187.211 262.734C186.61 262.453 186.145 261.946 185.918 261.323L171.382 221.386Z" stroke="#2293FB" stroke-opacity="0.15" stroke-width="3" stroke-linecap="round" stroke-linejoin="round"/>
<path d="M202.143 234.134L187.256 262.745" stroke="#2293FB" stroke-opacity="0.15" stroke-width="3" stroke-linecap="round" stroke-linejoin="round"/>
<path d="M242.189 242.751L212.394 230.403" stroke="#2293FB" stroke-opacity="0.15" stroke-width="3" stroke-linecap="round" stroke-linejoin="round"/>
<path d="M64.2056 100.375H46.75C45.9212 100.375 45.1263 100.046 44.5403 99.4597C43.9542 98.8737 43.625 98.0788 43.625 97.25V79.7944C43.625 79.3841 43.7058 78.9777 43.8629 78.5985C44.0199 78.2194 44.2501 77.8749 44.5403 77.5847L91.4153 30.7097C92.0013 30.1237 92.7962 29.7944 93.625 29.7944C94.4538 29.7944 95.2487 30.1237 95.8347 30.7097L113.29 48.1653C113.876 48.7514 114.206 49.5462 114.206 50.375C114.206 51.2038 113.876 51.9987 113.29 52.5847L66.4153 99.4597C66.1251 99.7499 65.7806 99.9801 65.4015 100.137C65.0223 100.294 64.616 100.375 64.2056 100.375Z" stroke="#0B4DCC" stroke-opacity="0.24" stroke-width="3" stroke-linecap="round" stroke-linejoin="round"/>
<path d="M81.125 41L103 62.875" stroke="#0B4DCC" stroke-opacity="0.24" stroke-width="3" stroke-linecap="round" stroke-linejoin="round"/>
<path d="M92.0625 94.125L107.688 78.5L103 62.875" stroke="#0B4DCC" stroke-opacity="0.24" stroke-width="3" stroke-linecap="round" stroke-linejoin="round"/>
<path d="M45.1875 76.9375L67.0625 98.8125" stroke="#0B4DCC" stroke-opacity="0.24" stroke-width="3" stroke-linecap="round" stroke-linejoin="round"/>
<path d="M222.207 29.0595L243.716 59.7777L228.097 59.2694L223.237 74.1171L201.728 43.3989" stroke="#1F62E4" stroke-opacity="0.19" stroke-width="3" stroke-linecap="round" stroke-linejoin="round"/>
<path d="M221.963 113.159C220.537 111.122 219.978 108.602 220.41 106.153C220.842 103.705 222.229 101.528 224.265 100.102L267.783 69.6306L233.727 20.9935L190.209 51.4647C188.172 52.8908 186.786 55.0677 186.354 57.5163C185.922 59.9649 186.481 62.4848 187.907 64.5215L221.963 113.159Z" stroke="#1F62E4" stroke-opacity="0.19" stroke-width="3" stroke-linecap="round" stroke-linejoin="round"/>
<path d="M221.963 113.159L225.548 118.278L271.625 86.0148" stroke="#1F62E4" stroke-opacity="0.19" stroke-width="3" stroke-linecap="round" stroke-linejoin="round"/>
<path d="M261.636 297.535C262.212 294.27 264.061 291.368 266.776 289.466C269.492 287.565 272.852 286.82 276.117 287.396L300.737 291.737C301.553 291.881 302.279 292.343 302.754 293.022C303.23 293.701 303.416 294.541 303.272 295.357L294.589 344.597C294.445 345.414 293.983 346.139 293.304 346.615C292.625 347.09 291.785 347.276 290.969 347.132L266.349 342.791C263.084 342.215 259.724 342.96 257.009 344.862C254.293 346.763 252.444 349.666 251.868 352.931" stroke="#30C8F9" stroke-opacity="0.18" stroke-width="3" stroke-linecap="round" stroke-linejoin="round"/>
<path d="M214.574 330.489C214.43 331.305 214.616 332.145 215.091 332.824C215.567 333.503 216.292 333.965 217.109 334.109L241.729 338.45C244.994 339.026 247.896 340.875 249.798 343.59C251.699 346.306 252.444 349.666 251.868 352.931L261.636 297.535C262.212 294.27 261.467 290.911 259.565 288.195C257.664 285.479 254.761 283.63 251.497 283.054L226.876 278.713C226.06 278.569 225.22 278.756 224.541 279.231C223.862 279.706 223.4 280.432 223.256 281.248L214.574 330.489Z" stroke="#30C8F9" stroke-opacity="0.18" stroke-width="3" stroke-linecap="round" stroke-linejoin="round"/>
<path d="M124.938 366.312H142.438" stroke="#1C8DF5" stroke-opacity="0.12" stroke-width="3" stroke-linecap="round" stroke-linejoin="round"/>
<path d="M133.688 357.562V375.062" stroke="#1C8DF5" stroke-opacity="0.12" stroke-width="3" stroke-linecap="round" stroke-linejoin="round"/>
<path d="M142.438 335.687H124.938" stroke="#1C8DF5" stroke-opacity="0.12" stroke-width="3" stroke-linecap="round" stroke-linejoin="round"/>
<path d="M173.062 360.862H155.562" stroke="#1C8DF5" stroke-opacity="0.12" stroke-width="3" stroke-linecap="round" stroke-linejoin="round"/>
<path d="M173.062 371.763H155.562" stroke="#1C8DF5" stroke-opacity="0.12" stroke-width="3" stroke-linecap="round" stroke-linejoin="round"/>
<path d="M170.875 329.125L157.75 342.25" stroke="#1C8DF5" stroke-opacity="0.12" stroke-width="3" stroke-linecap="round" stroke-linejoin="round"/>
<path d="M170.875 342.25L157.75 329.125" stroke="#1C8DF5" stroke-opacity="0.12" stroke-width="3" stroke-linecap="round" stroke-linejoin="round"/>
<path d="M251.499 177.249L273.953 155.64C275.184 154.41 275.875 152.74 275.875 151C275.875 149.26 275.184 147.59 273.953 146.36C272.722 145.129 271.053 144.438 269.312 144.438C267.572 144.437 265.903 145.129 264.672 146.36L241.67 169.295C239.56 171.405 238.375 174.266 238.375 177.25C238.375 180.234 239.56 183.095 241.67 185.205C243.78 187.315 246.641 188.5 249.625 188.5C252.609 188.5 255.47 187.315 257.58 185.205L276.811 165.999" stroke="#4A30EB" stroke-opacity="0.17" stroke-width="3" stroke-linecap="round" stroke-linejoin="round"/>
<path d="M190.552 137.157L136.425 105.907C134.931 105.044 133.02 105.556 132.157 107.05L100.907 161.177C100.044 162.672 100.556 164.583 102.05 165.446L156.177 196.696C157.672 197.559 159.583 197.047 160.446 195.552L191.696 141.425C192.559 139.931 192.047 138.02 190.552 137.157Z" stroke="#275DE9" stroke-opacity="0.15" stroke-width="3" stroke-linecap="round" stroke-linejoin="round"/>
<path d="M183.633 124.141L179.727 130.907" stroke="#275DE9" stroke-opacity="0.15" stroke-width="3" stroke-linecap="round" stroke-linejoin="round"/>
<path d="M151.157 105.391L147.251 112.157" stroke="#275DE9" stroke-opacity="0.15" stroke-width="3" stroke-linecap="round" stroke-linejoin="round"/>
<path d="M124.344 120.582L183.883 154.957" stroke="#275DE9" stroke-opacity="0.15" stroke-width="3" stroke-linecap="round" stroke-linejoin="round"/>
<path d="M132.77 143.488L142.242 148.956L132.924 152.597C133.813 153.111 134.563 153.836 135.106 154.709C135.649 155.582 135.968 156.575 136.035 157.6C136.102 158.626 135.916 159.652 135.492 160.588C135.068 161.524 134.42 162.341 133.605 162.967C132.79 163.593 131.833 164.008 130.819 164.176C129.805 164.344 128.765 164.259 127.792 163.929C126.819 163.599 125.942 163.034 125.239 162.285C124.536 161.535 124.029 160.624 123.762 159.631" stroke="#275DE9" stroke-opacity="0.15" stroke-width="3" stroke-linecap="round" stroke-linejoin="round"/>
<path d="M150.724 159.266L158.48 158.332L148.324 175.923" stroke="#275DE9" stroke-opacity="0.15" stroke-width="3" stroke-linecap="round" stroke-linejoin="round"/>
<g clip-path="url(#clip1)">
<path d="M116.922 266.504L125.026 269.454L124.907 257.173L116.922 266.504ZM144.83 251.166L113.507 239.766C111.353 238.982 108.95 240.102 108.166 242.256L96.7656 273.579C95.9818 275.732 97.1024 278.136 99.2559 278.919L130.579 290.32C132.732 291.104 135.136 289.983 135.919 287.83L147.32 256.507C148.104 254.353 146.983 251.95 144.83 251.166ZM125.144 280.582L125.05 273.897L114.009 269.878L109.678 274.953L105.587 273.464L124.854 251.655L128.495 252.98L129.236 282.072L125.144 280.582Z" fill="#198BF3" fill-opacity="0.24"/>
</g>
<g clip-path="url(#clip2)">
<path d="M69.0546 323.053L68.6204 320.591C71.3287 320.113 73.1291 317.511 72.6516 314.803L68.335 290.178C67.8575 287.47 65.251 285.645 62.5428 286.122L23.1504 293.068C20.4422 293.546 18.6171 296.152 19.0946 298.861L23.4359 323.481C23.9134 326.189 26.5199 328.014 29.2281 327.537L29.6623 329.999L19.8142 331.735L20.6824 336.659L79.7709 326.24L78.9026 321.316L69.0546 323.053ZM24.0187 297.992L63.411 291.047L67.7522 315.667L28.3599 322.613L24.0187 297.992Z" fill="#1B2FE0" fill-opacity="0.26"/>
</g>
<path d="M29.975 127C16.175 127 5 138.2 5 152C5 165.8 16.175 177 29.975 177C43.8 177 55 165.8 55 152C55 138.2 43.8 127 29.975 127ZM30 172C18.95 172 10 163.05 10 152C10 140.95 18.95 132 30 132C41.05 132 50 140.95 50 152C50 163.05 41.05 172 30 172Z" fill="#189CFC" fill-opacity="0.23"/>
<path d="M31.25 139.5H27.5V154.5L40.625 162.375L42.5 159.3L31.25 152.625V139.5Z" fill="#189CFC" fill-opacity="0.23"/>
<defs>
<clipPath id="clip0">
<rect width="50" height="50" fill="white" transform="translate(22 216) rotate(-30)"/>
</clipPath>
<clipPath id="clip1">
<rect width="50" height="50" fill="white" transform="translate(107.101 233) rotate(20)"/>
</clipPath>
<clipPath id="clip2">
<rect width="60" height="60" fill="white" transform="translate(12 287.419) rotate(-10)"/>
</clipPath>
</defs>
</svg>
